<svg width="32" height="30" viewBox="0 0 32 30" fill="none" xmlns="http://www.w3.org/2000/svg">
<path d="M9.75081 27.416C9.75081 26.324 8.74281 26.12 7.86681 26.024C7.37481 25.964 6.69081 25.868 6.69081 25.52C6.69081 25.16 7.12281 24.92 7.59081 24.92C8.14281 24.92 8.63481 25.172 8.79081 25.568H9.73881C9.57081 24.668 8.70681 24.116 7.66281 24.116C6.64281 24.116 5.74281 24.728 5.74281 25.652C5.74281 26.552 6.72681 26.768 7.71081 26.876C8.23881 26.936 8.81481 27.092 8.81481 27.524C8.81481 27.98 8.26281 28.268 7.72281 28.268C7.13481 28.268 6.58281 27.98 6.57081 27.368H5.64681C5.65881 28.532 6.64281 29.084 7.69881 29.084C8.77881 29.084 9.75081 28.484 9.75081 27.416ZM14.512 29V25.784C14.512 24.692 13.612 24.116 12.496 24.116C11.656 24.116 10.924 24.536 10.48 25.184V29H12.124V28.196H11.416V25.424C11.656 25.124 12.052 24.92 12.496 24.92C13.06 24.92 13.576 25.244 13.576 25.82V29H14.512ZM16.5282 29V24.2H15.5922V29H16.5282ZM21.157 27.368V24.2H20.221V27.368C20.221 27.824 19.873 28.268 19.345 28.268C18.721 28.268 18.313 27.716 18.313 27.116C18.313 26.48 18.685 25.952 19.513 25.436L18.517 24.128L17.725 24.632L18.373 25.424C17.869 25.796 17.389 26.372 17.389 27.116C17.389 28.244 18.229 29.084 19.345 29.084C20.401 29.084 21.157 28.352 21.157 27.368ZM21.145 22.424V21.824H18.901C17.989 21.824 17.533 22.388 17.533 23.084V23.6H18.841L19.417 23.276L19.969 23.6H20.773V22.892H20.029L19.417 22.544L18.781 22.892H18.349C18.349 22.664 18.553 22.424 18.937 22.424H21.145ZM26.161 29V24.2H25.225V27.26C25.225 27.764 24.541 28.28 23.977 28.28C23.353 28.28 23.041 27.872 23.041 27.404V24.2H22.105V27.428C22.105 28.412 22.729 29.084 23.773 29.084C24.445 29.084 24.973 28.688 25.225 28.4V29H26.161Z" fill="#F5580C"/>
<g clip-path="url(#clip0)">
<path d="M12.8061 16.1968C11.7889 16.1968 10.9604 17.0495 10.9604 18.0963C10.9604 19.1432 11.7889 19.9958 12.8061 19.9958C13.8232 19.9958 14.6518 19.1432 14.6518 18.0963C14.6518 17.0495 13.8232 16.1968 12.8061 16.1968ZM12.8061 18.9363C12.3549 18.9363 11.9899 18.5606 11.9899 18.0963C11.9899 17.632 12.3549 17.2563 12.8061 17.2563C13.2572 17.2563 13.6223 17.632 13.6223 18.0963C13.6223 18.5606 13.2572 18.9363 12.8061 18.9363Z" fill="#F5580C"/>
<path d="M19.2824 16.1968C18.2652 16.1968 17.4367 17.0495 17.4367 18.0963C17.4367 19.1432 18.2652 19.9958 19.2824 19.9958C20.2996 19.9958 21.1281 19.1432 21.1281 18.0963C21.1322 17.0495 20.3037 16.1968 19.2824 16.1968ZM19.2824 18.9363C18.8312 18.9363 18.4662 18.5606 18.4662 18.0963C18.4662 17.632 18.8312 17.2563 19.2824 17.2563C19.7336 17.2563 20.0986 17.632 20.0986 18.0963C20.0986 18.5606 19.7336 18.9363 19.2824 18.9363Z" fill="#F5580C"/>
<path d="M12.3508 7.25197H19.7377C20.0207 7.25197 20.2545 7.01558 20.2545 6.7201C20.2545 6.42884 20.0248 6.18823 19.7377 6.18823H12.3508C12.0678 6.18823 11.834 6.42462 11.834 6.7201C11.834 7.01558 12.0637 7.25197 12.3508 7.25197Z" fill="#F5580C"/>
<path d="M19.3357 8.9447H12.7527C12.4697 8.9447 12.2359 9.18109 12.2359 9.47658C12.2359 9.77206 12.4656 10.0084 12.7527 10.0084H19.3357C19.6187 10.0084 19.8525 9.77206 19.8525 9.47658C19.8525 9.18531 19.6228 8.9447 19.3357 8.9447Z" fill="#F5580C"/>
<path d="M24.7657 3.82437C24.5688 3.57532 24.2776 3.4318 23.9659 3.4318H7.90827L7.58424 1.81508C7.51452 1.47739 7.29303 1.19457 6.98542 1.05527L4.72135 0.0421816C4.45885 -0.0717906 4.15534 0.0506239 4.04049 0.32078C3.92565 0.590936 4.0487 0.903304 4.3071 1.01728L6.57116 2.03036L9.06491 14.4955C9.16334 14.9852 9.58991 15.344 10.0739 15.344H22.4278C22.7108 15.344 22.9446 15.1076 22.9446 14.8121C22.9446 14.5209 22.7149 14.2803 22.4278 14.2803H10.078L9.77448 12.7648H22.5262C23.0143 12.7648 23.4368 12.4103 23.5352 11.9164L24.979 4.71082C25.0405 4.39845 24.9626 4.07342 24.7657 3.82437ZM22.5262 11.7011H9.5612L8.11745 4.49554H23.9659L22.5262 11.7011Z" fill="#F5580C"/>
</g>
<defs>
<clipPath id="clip0">
<rect width="21" height="20" fill="white" transform="translate(4)"/>
</clipPath>
</defs>
</svg>
