<svg width="21" height="20" viewBox="0 0 21 20" fill="none" xmlns="http://www.w3.org/2000/svg">
<g clip-path="url(#clip0)">
<path d="M8.80606 16.1968C7.78887 16.1968 6.96036 17.0495 6.96036 18.0963C6.96036 19.1432 7.78887 19.9958 8.80606 19.9958C9.82325 19.9958 10.6518 19.1432 10.6518 18.0963C10.6518 17.0495 9.82325 16.1968 8.80606 16.1968ZM8.80606 18.9363C8.35489 18.9363 7.98985 18.5606 7.98985 18.0963C7.98985 17.632 8.35489 17.2563 8.80606 17.2563C9.25723 17.2563 9.62227 17.632 9.62227 18.0963C9.62227 18.5606 9.25723 18.9363 8.80606 18.9363Z" fill="white"/>
<path d="M15.2824 16.1968C14.2652 16.1968 13.4367 17.0495 13.4367 18.0963C13.4367 19.1432 14.2652 19.9958 15.2824 19.9958C16.2996 19.9958 17.1281 19.1432 17.1281 18.0963C17.1322 17.0495 16.3037 16.1968 15.2824 16.1968ZM15.2824 18.9363C14.8312 18.9363 14.4662 18.5606 14.4662 18.0963C14.4662 17.632 14.8312 17.2563 15.2824 17.2563C15.7336 17.2563 16.0986 17.632 16.0986 18.0963C16.0986 18.5606 15.7336 18.9363 15.2824 18.9363Z" fill="white"/>
<path d="M8.35078 7.25197H15.7377C16.0207 7.25197 16.2545 7.01558 16.2545 6.7201C16.2545 6.42884 16.0248 6.18823 15.7377 6.18823H8.35078C8.06777 6.18823 7.83398 6.42462 7.83398 6.7201C7.83398 7.01558 8.06367 7.25197 8.35078 7.25197Z" fill="white"/>
<path d="M15.3357 8.94482H8.75273C8.46972 8.94482 8.23593 9.18121 8.23593 9.4767C8.23593 9.77218 8.46562 10.0086 8.75273 10.0086H15.3357C15.6187 10.0086 15.8525 9.77218 15.8525 9.4767C15.8525 9.18543 15.6228 8.94482 15.3357 8.94482Z" fill="white"/>
<path d="M20.7657 3.82425C20.5688 3.5752 20.2776 3.43167 19.9659 3.43167H3.90827L3.58424 1.81496C3.51452 1.47726 3.29303 1.19444 2.98542 1.05515L0.721353 0.0420595C0.458854 -0.0719126 0.155338 0.0505019 0.0404943 0.320658C-0.0743494 0.590814 0.0486974 0.903182 0.307096 1.01715L2.57116 2.03024L5.06491 14.4954C5.16334 14.9851 5.58991 15.3439 6.07389 15.3439H18.4278C18.7108 15.3439 18.9446 15.1075 18.9446 14.812C18.9446 14.5207 18.7149 14.2801 18.4278 14.2801H6.07799L5.77448 12.7647H18.5262C19.0143 12.7647 19.4368 12.4101 19.5352 11.9163L20.979 4.7107C21.0405 4.39833 20.9626 4.0733 20.7657 3.82425ZM18.5262 11.701H5.5612L4.11745 4.49541H19.9659L18.5262 11.701Z" fill="white"/>
</g>
<defs>
<clipPath id="clip0">
<rect width="21" height="20" fill="white"/>
</clipPath>
</defs>
</svg>
