<svg width="32" height="32" viewBox="0 0 32 32" fill="none" xmlns="http://www.w3.org/2000/svg">
<path d="M5.67133 29V26.612C5.67133 25.928 5.22733 25.436 4.45933 25.316L5.59933 24.38L4.63933 24.14L2.52733 25.868V24.2H1.59133V29H2.52733V26.888L3.82333 25.82C4.49533 25.928 4.74733 26.324 4.74733 26.948V29H5.67133ZM10.6747 27.428V24.2H9.73867V27.404C9.73867 27.872 9.42667 28.28 8.80267 28.28C8.23867 28.28 7.55467 27.764 7.55467 27.26V24.2H6.61867V29H7.55467V28.4C7.80667 28.688 8.33467 29.084 9.00667 29.084C10.0387 29.084 10.6747 28.412 10.6747 27.428ZM15.4629 26.6C15.4629 25.232 14.7189 24.116 13.3749 24.116C12.2709 24.116 11.5749 24.86 11.3589 25.88H12.3189C12.4749 25.352 12.8229 24.944 13.3749 24.944C14.1669 24.944 14.5269 25.772 14.5269 26.6C14.5269 27.38 14.1909 28.244 13.3749 28.244C12.8109 28.244 12.4749 27.836 12.3189 27.32H11.3589C11.5749 28.34 12.2709 29.084 13.3749 29.084C14.7189 29.084 15.4629 27.968 15.4629 26.6ZM20.3926 29V25.136C20.1286 24.632 19.5166 24.116 18.4246 24.116C17.0686 24.116 16.0126 25.328 16.0006 26.708C15.9886 28.112 16.6246 29.06 17.8726 29.06C18.5326 29.06 18.9286 28.688 19.1446 28.448L18.5206 27.836C18.3286 28.04 18.1366 28.148 17.8726 28.148C17.2126 28.148 16.9246 27.44 16.9366 26.708C16.9606 25.832 17.5726 24.92 18.4726 24.92C19.0126 24.92 19.3606 25.184 19.4566 25.376V29H20.3926ZM25.4291 29V26.612C25.4291 25.928 24.9851 25.436 24.2171 25.316L25.3571 24.38L24.3971 24.14L22.2851 25.868V24.2H21.3491V29H22.2851V26.888L23.5811 25.82C24.2531 25.928 24.5051 26.324 24.5051 26.948V29H25.4291ZM30.4325 27.428V24.2H29.4965V27.404C29.4965 27.872 29.1845 28.28 28.5605 28.28C27.9965 28.28 27.3125 27.764 27.3125 27.26V24.2H26.3765V29H27.3125V28.4C27.5645 28.688 28.0925 29.084 28.7645 29.084C29.7965 29.084 30.4325 28.412 30.4325 27.428ZM30.4087 30.2V29.48H29.4727V30.104C29.4727 30.332 29.1367 30.368 28.9807 30.272V29.48H27.8407V30.2H28.2007V30.632C28.4647 30.908 28.8847 31.004 29.2687 31.004C29.8687 31.004 30.4087 30.716 30.4087 30.2ZM30.4087 23.6V22.28H29.4727V23.6H30.4087Z" fill="#F5580C"/>
<g clip-path="url(#clip0)">
<path d="M29.8352 17.7681L25.1831 13.2176C26.4254 11.8165 27.1859 9.9814 27.1859 7.98512C27.1859 3.58338 23.5225 0 19.0225 0C14.5225 0 10.8592 3.58338 10.8592 7.98512C10.8592 12.3869 14.5225 15.9702 19.0225 15.9702C21.0634 15.9702 22.9394 15.2263 24.3718 14.0112L29.024 18.5617C29.138 18.6733 29.2775 18.7229 29.4296 18.7229C29.569 18.7229 29.7211 18.6733 29.8352 18.5617C30.0507 18.3385 30.0507 17.9789 29.8352 17.7681ZM12 7.98512C12 4.19095 15.1563 1.11593 19.0225 1.11593C22.8887 1.11593 26.0324 4.19095 26.0324 7.97272C26.0324 11.7545 22.8887 14.8419 19.0225 14.8419C15.1563 14.8543 12 11.7669 12 7.98512Z" fill="#F5580C"/>
<path d="M10.9986 15.5983H3.39296C3.17746 15.5983 3 15.4248 3 15.214C3 15.0032 3.17746 14.8296 3.39296 14.8296H10.9986C11.2141 14.8296 11.3915 15.0032 11.3915 15.214C11.4042 15.4248 11.2268 15.5983 10.9986 15.5983Z" fill="#F5580C"/>
<path d="M8.50141 11.184H3.39296C3.17746 11.184 3 11.0104 3 10.7997C3 10.5889 3.17746 10.4153 3.39296 10.4153H8.50141C8.7169 10.4153 8.89437 10.5889 8.89437 10.7997C8.89437 11.0104 8.7169 11.184 8.50141 11.184Z" fill="#F5580C"/>
<path d="M24.638 20H3.39296C3.17746 20 3 19.8264 3 19.6156C3 19.4048 3.17746 19.2312 3.39296 19.2312H24.638C24.8535 19.2312 25.031 19.4048 25.031 19.6156C25.031 19.8264 24.8535 20 24.638 20Z" fill="#F5580C"/>
</g>
<defs>
<clipPath id="clip0">
<rect width="27" height="20" fill="white" transform="translate(3)"/>
</clipPath>
</defs>
</svg>
