<svg width="19" height="13" viewBox="0 0 19 13" fill="none" xmlns="http://www.w3.org/2000/svg">
<path d="M12.471 12.6389C12.1776 12.9278 11.8108 12.9278 11.5174 12.6389C11.2973 12.4223 11.2973 11.9889 11.5174 11.7L16.2124 7.07781L0.660227 7.07781C0.293432 7.07781 -5.72205e-06 6.78892 -5.72205e-06 6.42781C-5.72205e-06 6.0667 0.293432 5.77781 0.660227 5.77781L16.2124 5.77781L11.5174 1.15559C11.2973 0.8667 11.2973 0.50559 11.5174 0.216702C11.8108 -0.0721874 12.1776 -0.0721874 12.471 0.216702L18.3398 5.99448C18.5598 6.21115 18.5598 6.64448 18.3398 6.93337L12.471 12.6389Z" fill="#F5580C"/>
</svg>
