<svg width="29" height="34" viewBox="0 0 29 34" fill="none" xmlns="http://www.w3.org/2000/svg">
<g clip-path="url(#clip0)">
<path d="M14.4055 4.0238L5.56805 11.3809C5.56805 11.3809 5.56805 11.4048 5.56805 11.4286C5.56805 11.4524 5.56805 11.4524 5.56805 11.4762V18.9286C5.56805 19.1905 5.66257 19.4286 5.85161 19.619C6.04064 19.8095 6.27694 19.9048 6.53686 19.9048H12.4442V13.9524H16.3904V19.9048H22.2977C22.5577 19.9048 22.794 19.8095 22.983 19.619C23.172 19.4286 23.2665 19.1905 23.2665 18.9286V11.4762C23.2665 11.4286 23.2665 11.4048 23.2429 11.3809L14.4055 4.0238Z" fill="#878787"/>
<path d="M26.6682 9.69048L23.2892 6.88095V0.547619C23.2892 0.404762 23.2419 0.285714 23.1474 0.190476C23.0529 0.0952381 22.9348 0.047619 22.793 0.047619H19.8393C19.6975 0.047619 19.5794 0.0952381 19.4849 0.190476C19.3903 0.285714 19.3431 0.404762 19.3431 0.547619V3.57143L15.586 0.404762C15.2552 0.142857 14.8771 0 14.4045 0C13.9556 0 13.5539 0.142857 13.223 0.404762L2.14081 9.69048C2.04629 9.7619 1.9754 9.88095 1.9754 10.0238C1.9754 10.1667 1.99903 10.2857 2.09355 10.381L3.03873 11.5238C3.10962 11.619 3.22777 11.6667 3.36954 11.6905C3.48769 11.6905 3.60584 11.6667 3.74761 11.5714L14.4045 2.61905L25.0614 11.5714C25.1323 11.6429 25.2504 11.6905 25.3922 11.6905H25.4395C25.5813 11.6667 25.6758 11.619 25.7703 11.5238L26.7155 10.381C26.7864 10.2857 26.8336 10.1667 26.8336 10.0238C26.81 9.90476 26.7627 9.78571 26.6682 9.69048Z" fill="#878787"/>
</g>
<path d="M5.51898 29V26.612C5.51898 25.928 5.07498 25.436 4.30698 25.316L5.44698 24.38L4.48698 24.14L2.37498 25.868V24.2H1.43898V29H2.37498V26.888L3.67098 25.82C4.34298 25.928 4.59498 26.324 4.59498 26.948V29H5.51898ZM10.5223 29V24.2H9.58633V27.26C9.58633 27.764 8.90233 28.28 8.33833 28.28C7.71433 28.28 7.40233 27.872 7.40233 27.404V24.2H6.46633V27.428C6.46633 28.412 7.09033 29.084 8.13433 29.084C8.80633 29.084 9.33433 28.688 9.58633 28.4V29H10.5223ZM11.2785 23.6V22.88H9.80252V22.796C9.80252 22.496 9.62252 22.28 9.17852 22.28H8.51852V22.88H8.68652C8.81852 22.88 8.86652 22.952 8.86652 23.072V23.6H11.2785ZM14.0385 29V25.904C14.0385 24.92 13.4745 24.116 12.2865 24.116C11.8305 24.116 11.4945 24.2 11.1705 24.356V25.28C11.3505 25.124 11.6865 24.992 12.0345 24.992C12.6705 24.992 13.1025 25.364 13.1025 26.024V29H14.0385ZM17.8296 29V24.2H16.8936V29H17.8296ZM16.0536 29V24.2H15.1176V29H16.0536ZM22.7996 27.416C22.7996 26.324 21.7916 26.12 20.9156 26.024C20.4236 25.964 19.7396 25.868 19.7396 25.52C19.7396 25.16 20.1716 24.92 20.6396 24.92C21.1916 24.92 21.6836 25.172 21.8396 25.568H22.7876C22.6196 24.668 21.7556 24.116 20.7116 24.116C19.6916 24.116 18.7916 24.728 18.7916 25.652C18.7916 26.552 19.7756 26.768 20.7596 26.876C21.2876 26.936 21.8636 27.092 21.8636 27.524C21.8636 27.98 21.3116 28.268 20.7716 28.268C20.1836 28.268 19.6316 27.98 19.6196 27.368H18.6956C18.7076 28.532 19.6916 29.084 20.7476 29.084C21.8276 29.084 22.7996 28.484 22.7996 27.416ZM27.5608 29V25.784C27.5608 24.692 26.6608 24.116 25.5448 24.116C24.7048 24.116 23.9728 24.536 23.5288 25.184V29H24.4648V25.424C24.7048 25.124 25.1008 24.92 25.5448 24.92C26.1088 24.92 26.6248 25.244 26.6248 25.82V29H27.5608Z" fill="#878787"/>
<defs>
<clipPath id="clip0">
<rect width="25" height="20" fill="white" transform="translate(2)"/>
</clipPath>
</defs>
</svg>
