<svg width="32" height="28" viewBox="0 0 32 28" fill="none" xmlns="http://www.w3.org/2000/svg">
<path d="M15.6306 20.2H14.7426L13.9026 23.284L12.8346 20.2H12.1986L11.1666 23.272L10.5786 21.016H11.1786V20.2H9.40263L10.7346 25H11.4306L12.5106 21.796L13.6146 25H14.3226L15.6306 20.2ZM15.1802 26.2V25.48H14.2442V26.104C14.2442 26.332 13.9082 26.368 13.7522 26.272V25.48H12.6122V26.2H12.9722V26.632C13.2362 26.908 13.6562 27.004 14.0402 27.004C14.6402 27.004 15.1802 26.716 15.1802 26.2ZM15.9602 19.6V18.88H14.4842V18.796C14.4842 18.496 14.3042 18.28 13.8602 18.28H13.2002V18.88H13.3682C13.5002 18.88 13.5482 18.952 13.5482 19.072V19.6H15.9602ZM17.8922 18.628C17.8922 18.028 17.3642 17.5 16.5362 17.5C15.7802 17.5 15.1442 18.088 15.1442 18.856H16.0682C16.0682 18.484 16.2842 18.268 16.5602 18.268C16.8482 18.268 16.9682 18.472 16.9682 18.652C16.9682 19.06 16.3802 19.048 16.3802 19.684V25H17.3162V19.804C17.3162 19.24 17.8922 19.204 17.8922 18.628ZM22.3471 23.104C22.3471 22.264 21.9511 21.7 21.2671 21.364L22.2031 20.476L21.3031 20.116L19.8991 21.448C21.0271 21.784 21.4111 22.336 21.4111 23.056C21.4111 23.716 20.9071 24.244 20.1031 24.268C19.8271 24.268 19.6111 24.22 19.4671 24.184V20.2H18.5191V24.76C18.5191 24.76 19.2511 25.084 20.1031 25.072C21.5671 25.048 22.3471 24.208 22.3471 23.104ZM22.9094 19.6V18.88H21.4334V18.796C21.4334 18.496 21.2534 18.28 20.8094 18.28H20.1494V18.88H20.3174C20.4494 18.88 20.4974 18.952 20.4974 19.072V19.6H22.9094Z" fill="#878787"/>
<g clip-path="url(#clip0)">
<path d="M15.4486 8.62335H15.5514C16.4772 8.60678 17.2289 8.26715 17.7827 7.61274C19.0012 6.17551 18.7995 3.71111 18.7757 3.47502C18.6966 1.71059 17.8974 0.865649 17.2407 0.46803C16.7502 0.173958 16.1765 0.0124256 15.5396 0H15.4842C15.1321 0 14.4437 0.057986 13.783 0.455604C13.1184 0.849081 12.3074 1.69402 12.2282 3.47502C12.2045 3.71111 12.0027 6.17551 13.2212 7.61274C13.7712 8.26301 14.5228 8.60678 15.4486 8.62335ZM13.0709 3.55372C13.0709 3.54543 13.0749 3.53301 13.0749 3.52886C13.1777 1.15144 14.7918 0.898783 15.4802 0.898783H15.5198C16.3743 0.919493 17.8262 1.28398 17.9251 3.52886C17.9251 3.53715 17.9251 3.54957 17.9291 3.55372C17.9331 3.57857 18.1546 5.83174 17.1458 7.01631C16.7462 7.48848 16.2161 7.72043 15.5158 7.72457H15.4842C14.7879 7.71628 14.2538 7.48434 13.8582 7.01631C12.8533 5.84002 13.067 3.57442 13.0709 3.55372Z" fill="#878787"/>
<path d="M21.9962 12.7114V12.7031C21.9962 12.6783 21.9922 12.6493 21.9922 12.6203C21.9725 11.9659 21.9329 10.4292 20.5601 9.9405C20.5522 9.93636 20.5364 9.93222 20.5285 9.93222C19.1003 9.55117 17.9134 8.68966 17.9016 8.68138C17.7077 8.54055 17.4426 8.59026 17.3081 8.78906C17.1736 8.99202 17.2211 9.26952 17.411 9.41034C17.4664 9.45176 18.7244 10.3671 20.299 10.7937C21.0348 11.0671 21.1179 11.8955 21.1417 12.6493C21.1417 12.6783 21.1417 12.7073 21.1456 12.7321C21.1496 13.0303 21.1298 13.4901 21.0784 13.7552C20.5641 14.0616 18.5543 15.1137 15.5002 15.1137C12.4539 15.1137 10.4323 14.0575 9.91799 13.751C9.86656 13.4859 9.84678 13.0262 9.85073 12.728C9.85073 12.7031 9.85469 12.6741 9.85469 12.6451C9.87843 11.8913 9.95755 11.0629 10.6974 10.7896C12.2719 10.3671 13.5339 9.44348 13.5854 9.4062C13.7792 9.26538 13.8267 8.98373 13.6882 8.78492C13.5537 8.58197 13.2847 8.53227 13.0948 8.67723C13.0829 8.68552 11.9 9.54702 10.4679 9.92808C10.456 9.93222 10.4442 9.93636 10.4362 9.93636C9.06345 10.4292 9.01994 11.9659 9.00411 12.6161C9.00411 12.6451 9.00411 12.6741 9.00016 12.699V12.7073C8.9962 12.8812 8.99224 13.7634 9.16236 14.2066C9.19401 14.2936 9.24939 14.364 9.32852 14.4137C9.42347 14.48 11.6983 15.9959 15.5081 15.9959C19.3179 15.9959 21.5927 14.4758 21.6876 14.4137C21.7588 14.364 21.8221 14.2895 21.8538 14.2066C22.0002 13.7676 22.0002 12.8812 21.9962 12.7114Z" fill="#878787"/>
</g>
<defs>
<clipPath id="clip0">
<rect width="13" height="16" fill="white" transform="matrix(-1 0 0 1 22 0)"/>
</clipPath>
</defs>
</svg>
